HIERARCHY
ROOT Hips
{
	OFFSET 0.000000 0.000000 0.000000
	CHANNELS 6 Xposition Yposition Zposition Zrotation Yrotation Xrotation 
	JOINT LHipJoint
	{
		OFFSET 0.000000 0.000000 0.000000
		CHANNELS 3 Zrotation Yrotation Xrotation
		JOINT LeftUpLeg
		{
			OFFSET 1.363060 -1.794630 0.839290
			CHANNELS 3 Zrotation Yrotation Xrotation
			JOINT LeftLeg
			{
				OFFSET 2.448110 -6.726130 0.000000
				CHANNELS 3 Zrotation Yrotation Xrotation
				JOINT LeftFoot
				{
					OFFSET 2.562200 -7.039590 0.000000
					CHANNELS 3 Zrotation Yrotation Xrotation
					JOINT LeftToeBase
					{
						OFFSET 0.157640 -0.433110 2.322550
						CHANNELS 3 Zrotation Yrotation Xrotation
						End Site
						{
							OFFSET 0.000000 0.000000 0.000000
						}
					}
				}
			}
		}
	}
	JOINT RHipJoint
	{
		OFFSET 0.000000 0.000000 0.000000
		CHANNELS 3 Zrotation Yrotation Xrotation
		JOINT RightUpLeg
		{
			OFFSET -1.305520 -1.794630 0.839290
			CHANNELS 3 Zrotation Yrotation Xrotation
			JOINT RightLeg
			{
				OFFSET -2.542530 -6.985550 0.000000
				CHANNELS 3 Zrotation Yrotation Xrotation
				JOINT RightFoot
				{
					OFFSET -2.568260 -7.056230 0.000000
					CHANNELS 3 Zrotation Yrotation Xrotation
					JOINT RightToeBase
					{
						OFFSET -0.164730 -0.452590 2.363150
						CHANNELS 3 Zrotation Yrotation Xrotation
						End Site
						{
							OFFSET 0.000000 0.000000 0.000000
						}
					}
				}
			}
		}
	}
}
MOTION
Frames: 24
Frame Time: 0.008333
6.441802 16.807560 -6.491221 -174.222824 36.407895 -175.305005 -8.713483 2.279998 -0.185681 -19.817605 20.181652 -32.570989 -2.566131 0.847538 28.685015 3.104572 15.012579 -16.732911 177.551900 -0.000000 -1.639900 11.848444 -4.270378 -0.239321 -5.762892 -13.959216 9.447234 -0.991845 -1.952056 29.597710 -1.899591 -0.997022 40.295343 0.045100 -0.000000 -82.415500
6.495852 16.801222 -6.626871 -174.334610 35.925945 -175.507497 -8.722034 2.328334 -0.246860 -19.780218 20.222975 -31.957504 -2.570238 0.877463 29.109804 3.047756 14.670999 -17.083260 177.475800 -0.000000 -1.226200 11.953035 -4.146298 -0.303723 -5.959723 -14.188581 8.517877 -1.049237 -1.974344 31.816363 -2.080252 -2.410386 40.579229 -0.923300 -0.000000 -78.869900
6.546224 16.795966 -6.761073 -174.434141 35.419811 -175.698272 -8.735421 2.369391 -0.295956 -19.715732 20.186885 -31.265792 -2.571867 0.894925 29.434591 3.010843 14.404589 -17.509980 177.373500 0.000000 -0.750700 12.039455 -4.018337 -0.390562 -6.099994 -14.443892 7.521591 -1.097263 -2.015214 34.062939 -2.249246 -4.111271 40.292489 -2.092200 -0.000000 -75.339800
6.592986 16.792171 -6.894061 -174.516963 34.903397 -175.871067 -8.754952 2.403298 -0.332929 -19.622496 20.078540 -30.507829 -2.569878 0.901600 29.663138 2.992441 14.217981 -17.981186 177.252500 0.000000 -0.224799 12.105763 -3.891220 -0.492093 -6.166671 -14.684151 6.460918 -1.141366 -2.078181 36.309734 -2.402606 -5.998221 39.404104 -3.354900 0.000000 -72.028200
6.636338 16.790194 -7.025967 -174.581629 34.389417 -176.021556 -8.781689 2.430628 -0.358729 -19.502252 19.909267 -29.699035 -2.563774 0.899345 29.799991 2.989704 14.108124 -18.463614 -2.879000 0.000000 -0.336600 12.151311 -3.768908 -0.599719 -6.146739 -14.871850 5.336826 -1.185514 -2.164049 38.530990 -2.536512 -7.943965 37.913590 -4.581000 0.000001 -68.978000
6.676506 16.790336 -7.156933 -174.626569 33.888971 -176.145355 -8.816625 2.451919 -0.375647 -19.357630 19.695898 -28.856900 -2.553786 0.890076 29.850843 2.998378 14.062865 -18.927178 -3.012500 0.000001 -0.913201 12.176191 -3.653778 -0.703343 -6.025678 -14.967629 4.155709 -1.231464 -2.269356 40.687630 -2.650556 -9.843693 35.882578 -5.663200 0.000000 -66.463000
6.713781 16.792818 -7.287003 -174.654187 33.409901 -176.242046 -8.859866 2.468386 -0.386098 -19.195374 19.456693 -27.996321 -2.540734 0.875271 29.819259 3.013868 14.066146 -19.346428 -3.139900 -0.000000 -1.485600 12.182025 -3.547411 -0.795163 -5.802975 -14.949440 2.919451 -1.278359 -2.390010 42.757234 -2.742128 -11.585394 33.367806 -6.499100 0.000000 -64.297100
6.748487 16.797748 -7.416157 -174.668077 32.956134 -176.312834 -8.911084 2.481244 -0.392942 -19.021954 19.210204 -27.128989 -2.525938 0.856065 29.708195 3.031316 14.097574 -19.703320 -3.253499 -0.000001 -2.034600 12.170968 -3.449951 -0.868565 -5.483221 -14.802904 1.634633 -1.323225 -2.520106 44.714393 -2.810188 -13.091238 30.454927 -7.028900 0.000000 -62.304700
6.780928 16.805105 -7.544401 -174.670537 32.528175 -176.358749 -8.970226 2.491063 -0.399410 -18.841707 18.973877 -26.263244 -2.510815 0.833130 29.519929 3.046227 14.135847 -19.987704 -3.347200 0.000000 -2.546500 12.144685 -3.359999 -0.917405 -5.070996 -14.516091 0.313810 -1.361611 -2.651799 46.525066 -2.857602 -14.335181 27.278948 -7.251700 -0.000000 -60.592300
6.811446 16.814837 -7.671678 -174.665365 32.122123 -176.383553 -9.036508 2.498577 -0.408151 -18.658720 18.760720 -25.401449 -2.496856 0.806682 29.255333 3.054938 14.161061 -20.197535 -3.417000 -0.000000 -3.010600 12.105288 -3.275462 -0.938761 -4.580333 -14.091561 -1.030465 -1.388957 -2.778516 48.166019 -2.886500 -15.305530 23.967508 -7.192200 -0.000000 -59.092400
6.840298 16.826710 -7.797931 -174.655141 31.731303 -176.391168 -9.109193 2.504116 -0.421225 -18.474927 18.578291 -24.541060 -2.485129 0.776570 28.914452 3.055057 14.158180 -20.336862 -3.461100 0.000000 -3.422800 12.054404 -3.193799 -0.932015 -4.026926 -13.539800 -2.384243 -1.401711 -2.894690 49.617234 -2.900048 -16.015103 20.656667 -6.904999 0.000000 -57.813600
6.867751 16.840439 -7.923094 -174.643728 31.346541 -176.387467 -9.186749 2.508353 -0.439176 -18.292638 18.426487 -23.675357 -2.476311 0.742444 28.497073 3.045714 14.118523 -20.414776 -3.480400 -0.000000 -3.783300 11.994122 -3.112924 -0.900692 -3.434892 -12.887701 -3.739002 -1.397641 -2.998137 50.878937 -2.897113 -16.462610 17.423356 -6.435000 -0.000000 -56.343300
6.894013 16.855699 -8.047161 -174.631096 30.957818 -176.374880 -9.268832 2.510698 -0.462222 -18.109189 18.301293 -22.798851 -2.470360 0.703943 28.005486 3.026916 14.037742 -20.442855 -3.477600 0.000000 -4.099500 11.924895 -3.030167 -0.846184 -2.814955 -12.149376 -5.080831 -1.377171 -3.085178 51.931913 -2.883763 -16.704421 14.410523 -5.872499 0.000000 -55.089701
6.919273 16.872147 -8.170149 -174.618387 30.555066 -176.356481 -9.354141 2.511443 -0.488765 -17.924081 18.191484 -21.904038 -2.466725 0.660838 27.442965 3.000063 13.918844 -20.433303 -3.456700 -0.000000 -4.382400 11.847953 -2.944216 -0.773836 -2.184770 -11.354594 -6.404861 -1.341508 -3.156097 52.783475 -2.859231 -16.758378 11.661754 -5.265600 -0.000001 -53.796000
6.943673 16.889452 -8.292075 -174.605138 30.129886 -176.332522 -9.441811 2.510389 -0.516559 -17.735658 18.082760 -20.986901 -2.464290 0.613019 26.813929 2.967179 13.769348 -20.395663 -3.422000 0.000000 -4.648800 11.763840 -2.853866 -0.687567 -1.554343 -10.524078 -7.707294 -1.293037 -3.211034 53.436701 -2.825286 -16.661111 9.219939 -4.664400 -0.000000 -52.473600
6.967377 16.907151 -8.413020 -174.590416 29.672961 -176.303152 -9.531140 2.507281 -0.543163 -17.541660 17.960133 -20.046838 -2.461757 0.561012 26.130002 2.930328 13.597187 -20.340488 -3.378099 0.000000 -4.912400 11.672873 -2.758440 -0.590542 -0.930453 -9.674559 -8.983549 -1.234859 -3.250177 53.891755 -2.784536 -16.452843 7.121742 -4.110000 0.000000 -51.430600
6.990600 16.925112 -8.533089 -174.574020 29.180919 -176.264859 -9.620757 2.502458 -0.565011 -17.343525 17.806701 -19.086906 -2.457555 0.505139 25.397093 2.892057 13.415761 -20.268864 -3.327900 -0.000000 -5.194800 11.575682 -2.657725 -0.485376 -0.318029 -8.818645 -10.237827 -1.168653 -3.275088 54.163361 -2.737281 -16.156061 5.329136 -3.612200 -0.000000 -50.402400
7.013455 16.942860 -8.652306 -174.555033 28.649144 -176.216333 -9.709607 2.496124 -0.579877 -17.141042 17.611641 -18.113998 -2.450652 0.446675 24.631878 2.853777 13.231582 -20.186177 -3.274100 0.000000 -5.507100 11.472780 -2.551790 -0.373450 0.279688 -7.963541 -11.468885 -1.096253 -3.286543 54.257559 -2.685766 -15.800259 3.822689 -3.180700 -0.000000 -49.549200
7.036194 16.960359 -8.770773 -174.533832 28.077553 -176.153306 -9.796465 2.488878 -0.585280 -16.937265 17.365590 -17.137664 -2.440096 0.386548 23.843476 2.816710 13.053099 -20.087876 -3.217000 -0.000000 -5.861800 11.364574 -2.440565 -0.254611 0.860929 -7.108868 -12.680522 -1.018356 -3.285494 54.184734 -2.632296 -15.410252 2.550686 -2.811200 -0.000000 -48.800500
7.059055 16.977392 -8.888556 -174.511563 27.467043 -176.073828 -9.879961 2.481483 -0.580165 -16.734917 17.066485 -16.168840 -2.425759 0.326105 23.045843 2.781031 12.882167 -19.972663 -3.156700 0.000000 -6.262199 11.251783 -2.324151 -0.128145 1.422794 -6.252494 -13.873332 -0.935427 -3.272648 53.952400 -2.579863 -15.010550 1.466700 -2.497700 -0.000000 -48.171500
7.082226 16.993830 -9.005656 -174.489182 26.819909 -175.976759 -9.958948 2.474924 -0.564492 -16.537470 16.717862 -15.217510 -2.408018 0.266560 22.249004 2.746063 12.717068 -19.835864 -3.091900 -0.000000 -6.705900 11.135067 -2.202537 0.006909 1.961423 -5.390562 -15.046961 -0.847684 -3.248577 53.567959 -2.531895 -14.624815 0.524083 -2.232200 -0.000000 -47.630000
7.105855 17.009472 -9.122135 -174.467017 26.138605 -175.862159 -10.032305 2.469984 -0.539514 -16.346752 16.329204 -14.293035 -2.387877 0.209079 21.464839 2.710438 12.550751 -19.677112 -3.021100 0.000000 -7.184100 11.015293 -2.076000 0.151620 2.473042 -4.519542 -16.199914 -0.755423 -3.213815 53.037700 -2.492080 -14.275846 -0.313240 -2.007800 -0.000000 -47.192800
7.130264 17.024194 -9.237906 -174.449076 25.427319 -175.733565 -10.098835 2.467817 -0.507482 -16.164437 15.915077 -13.400871 -2.366898 0.154498 20.699925 2.672416 12.374413 -19.495106 -2.943000 -0.000000 -7.684300 10.893629 -1.944569 0.306259 2.953291 -3.639903 -17.329468 -0.659338 -3.168801 52.368081 -2.464456 -13.986598 -1.073038 -1.819100 0.000000 -46.801600
7.155411 17.038051 -9.353101 -174.436150 24.689505 -175.593165 -10.158268 2.469274 -0.470202 -15.993381 15.487408 -12.541380 -2.346183 0.102915 19.952793 2.630757 12.182194 -19.287156 -2.856200 -0.000000 -8.192100 10.770566 -1.808501 0.470134 3.395761 -2.756999 -18.433258 -0.560343 -3.113763 51.564444 -2.452542 -13.776153 -1.769926 -1.662600 0.000000 -46.411300
